<?xml version="1.0" encoding="iso-8859-1"?>
<!-- Generator: Adobe Illustrator 16.0.3, SVG Export Plug-In . SVG Version: 6.00 Build 0)  -->
<!DOCTYPE svg PUBLIC "-//W3C//DTD SVG 1.1//EN" "http://www.w3.org/Graphics/SVG/1.1/DTD/svg11.dtd">
<svg version="1.1" xmlns="http://www.w3.org/2000/svg" xmlns:xlink="http://www.w3.org/1999/xlink" x="0px" y="0px"
	 width="250px" height="250px" viewBox="170 200 250 250" style="enable-background:new 0 0 595.28 841.89;"
	 xml:space="preserve">
<g id="Capa_2">
	<path style="fill:none;stroke:#F2F2F2;stroke-width:2;stroke-miterlimit:10;" d="M212.118,269.283l7.57-14.955l-6.292-9.167
		C213.279,245.396,212.118,269.283,212.118,269.283z"/>
</g>
<g id="Capa_3">
	<path style="fill:none;stroke:#F2F2F2;stroke-width:2;stroke-miterlimit:10;" d="M211.917,274.057l0.201-4.774L211.917,274.057z"/>
	<polygon style="fill:none;stroke:#F2F2F2;stroke-width:2;stroke-miterlimit:10;" points="222.487,255.139 225.063,258.14 
		227.849,260.565 248.406,277.546 256.126,269.961 	"/>
	
		<line style="fill:none;stroke:#F2F2F2;stroke-width:2;stroke-miterlimit:10;" x1="220.231" y1="254.175" x2="247.024" y2="298.158"/>
	<polyline style="fill:none;stroke:#F2F2F2;stroke-width:2;stroke-miterlimit:10;" points="256.126,269.961 297.64,262.724 
		339.5,270.328 375.25,253.64 381.684,245.161 383.75,272.515 378,290.724 370.5,300.224 360.667,304.39 361.602,305.923 
		371.583,330.736 367.667,343.557 357.334,370.224 356.167,370.39 333.5,373.89 320.834,368.765 298.75,350.557 295.875,346.974 
		290.458,338.474 274.792,315.974 273,313.974 248.333,299.057 211.917,274.057 212.017,270.328 	"/>
	<polyline style="fill:none;stroke:#F2F2F2;stroke-width:2;stroke-miterlimit:10;" points="375.25,253.64 383.75,272.515 
		347.667,298.307 353.522,307.935 358.557,316.212 360.754,304.563 367.584,295.557 	"/>
	<polyline style="fill:none;stroke:#F2F2F2;stroke-width:2;stroke-miterlimit:10;" points="353.522,307.935 368.333,294.849 
		372.959,286.599 372.959,280.599 	"/>
	<polyline style="fill:none;stroke:#F2F2F2;stroke-width:2;stroke-miterlimit:10;" points="347.667,298.307 375.507,254.209 
		345.5,278.39 339.5,270.328 	"/>
	<polyline style="fill:none;stroke:#F2F2F2;stroke-width:2;stroke-miterlimit:10;" points="260.5,279.974 272.906,313.359 
		248.406,277.546 	"/>
	<polyline style="fill:none;stroke:#F2F2F2;stroke-width:2;stroke-miterlimit:10;" points="280.313,309.526 274.11,313.359 
		275.286,273.472 	"/>
	<polyline style="fill:none;stroke:#F2F2F2;stroke-width:2;stroke-miterlimit:10;" points="275.75,273.268 279.905,309.794 
		297.896,319.609 	"/>
	
		<line style="fill:none;stroke:#F2F2F2;stroke-width:2;stroke-miterlimit:10;" x1="276.063" y1="273.472" x2="297.896" y2="297.943"/>
	<polyline style="fill:none;stroke:#F2F2F2;stroke-width:2;stroke-miterlimit:10;" points="222.292,281.179 222.292,286.807 
		228,296.438 236.021,303.161 241.563,307.89 247.668,298.601 	"/>
	<polyline style="fill:none;stroke:#F2F2F2;stroke-width:2;stroke-miterlimit:10;" points="235.475,302.704 234.625,304.723 
		224,299.89 216.833,291.182 211.927,274.097 	"/>
	
		<line style="fill:none;stroke:#F2F2F2;stroke-width:2;stroke-miterlimit:10;" x1="358.557" y1="316.212" x2="367.729" y2="343.379"/>
	
		<line style="fill:none;stroke:#F2F2F2;stroke-width:2;stroke-miterlimit:10;" x1="358.056" y1="317.14" x2="299.417" y2="349.828"/>
	<polyline style="fill:none;stroke:#F2F2F2;stroke-width:2;stroke-miterlimit:10;" points="349.185,322.085 356.563,330.39 
		353.525,344.152 353.406,344.25 	"/>
	<path style="fill:none;stroke:#F2F2F2;stroke-width:2;stroke-miterlimit:10;" d="M363.569,331.057"/>
	<polyline style="fill:none;stroke:#F2F2F2;stroke-width:2;stroke-miterlimit:10;" points="305.25,346.265 318.833,358.724 
		321.25,359.307 353.465,344.424 363.461,330.736 	"/>
	<polyline style="fill:none;stroke:#F2F2F2;stroke-width:2;stroke-miterlimit:10;" points="306.458,346.724 315.167,345.022 
		316.386,340.369 	"/>
	<polyline style="fill:none;stroke:#F2F2F2;stroke-width:2;stroke-miterlimit:10;" points="318.013,339.462 319.958,342.474 
		324.667,343.057 329.917,339.462 330.917,332.268 	"/>
	<polyline style="fill:none;stroke:#F2F2F2;stroke-width:2;stroke-miterlimit:10;" points="340.319,327.027 339.531,338.046 
		338.625,341.859 336.724,345.594 332.344,348.449 327.625,350.484 323.156,350.296 319.313,348.859 316.386,345.546 
		320.458,346.057 323.417,346.432 326.75,346.265 329.625,344.474 332.375,342.307 335.875,337.39 335.875,329.057 	"/>
	<path style="fill:none;stroke:#F2F2F2;stroke-width:2;stroke-miterlimit:10;" d="M332.109,348.171"/>
	<polyline style="fill:none;stroke:#F2F2F2;stroke-width:2;stroke-miterlimit:10;" points="321.25,359.307 345.917,364.203 
		347.625,362.932 366.917,345.022 	"/>
	
		<line style="fill:none;stroke:#F2F2F2;stroke-width:2;stroke-miterlimit:10;" x1="320.834" y1="368.765" x2="346.209" y2="364.203"/>
	<path style="fill:none;stroke:#F2F2F2;stroke-width:2;stroke-miterlimit:10;" d="M357.334,370.224"/>
	<polyline style="fill:none;stroke:#F2F2F2;stroke-width:2;stroke-miterlimit:10;" points="371.583,330.736 371.583,356.974 
		351.917,382.307 322.833,381.89 309.899,380.109 297.64,350.484 298.5,406.64 	"/>
	
		<line style="fill:none;stroke:#F2F2F2;stroke-width:2;stroke-miterlimit:10;" x1="357.334" y1="370.224" x2="352.878" y2="381.068"/>
	<line style="fill:none;stroke:#F2F2F2;stroke-width:2;stroke-miterlimit:10;" x1="309.899" y1="380.109" x2="333.5" y2="373.89"/>
	<polyline style="fill:none;stroke:#F2F2F2;stroke-width:2;stroke-miterlimit:10;" points="298.482,405.473 303.084,389.807 
		309.641,379.484 	"/>
	<polyline style="fill:none;stroke:#F2F2F2;stroke-width:2;stroke-miterlimit:10;" points="299.341,402.552 324.398,390.681 
		350.153,382.23 	"/>
	
		<line style="fill:none;stroke:#F2F2F2;stroke-width:2;stroke-miterlimit:10;" x1="303.203" y1="389.62" x2="324.398" y2="390.681"/>
	<polyline style="fill:none;stroke:#F2F2F2;stroke-width:2;stroke-miterlimit:10;" points="234.625,304.723 230.333,312.89 
		227.5,319.609 223.333,330.736 223.333,343.14 222.917,356.14 243.25,382.23 270.125,390.681 295.75,402.552 	"/>
	
		<line style="fill:none;stroke:#F2F2F2;stroke-width:2;stroke-miterlimit:10;" x1="223.333" y1="332.224" x2="242.38" y2="381.114"/>
	<polyline style="fill:none;stroke:#F2F2F2;stroke-width:2;stroke-miterlimit:10;" points="227.484,342.878 232.083,331.057 
		236.25,315.64 233.926,306.053 	"/>
	<line style="fill:none;stroke:#F2F2F2;stroke-width:2;stroke-miterlimit:10;" x1="236.25" y1="315.64" x2="241.563" y2="307.89"/>
	<path style="fill:none;stroke:#F2F2F2;stroke-width:2;stroke-miterlimit:10;" d="M234.542,305.682"/>
	<path style="fill:none;stroke:#F2F2F2;stroke-width:2;stroke-miterlimit:10;" d="M239.875,309.765"/>
	
		<line style="fill:none;stroke:#F2F2F2;stroke-width:2;stroke-miterlimit:10;" x1="271.625" y1="322.89" x2="273.178" y2="314.172"/>
	<line style="fill:none;stroke:#F2F2F2;stroke-width:2;stroke-miterlimit:10;" x1="254.953" y1="312.275" x2="271.659" y2="322.7"/>
	<polyline style="fill:none;stroke:#F2F2F2;stroke-width:2;stroke-miterlimit:10;" points="271.375,322.263 296.75,349.492 
		274,368.765 262.188,373.89 238.208,370.406 	"/>
	
		<line style="fill:none;stroke:#F2F2F2;stroke-width:2;stroke-miterlimit:10;" x1="264.441" y1="331.607" x2="295.75" y2="349.492"/>
	<polyline style="fill:none;stroke:#F2F2F2;stroke-width:2;stroke-miterlimit:10;" points="236.931,316.212 265.112,331.99 
		254.906,312.537 236.59,315.64 	"/>
	<polyline style="fill:none;stroke:#F2F2F2;stroke-width:2;stroke-miterlimit:10;" points="232.25,331.607 241.917,346.265 
		274.75,359.307 290.102,346.265 	"/>
	<polyline style="fill:none;stroke:#F2F2F2;stroke-width:2;stroke-miterlimit:10;" points="241.384,345.457 238.906,330.14 
		246.296,321.456 	"/>
	<polyline style="fill:none;stroke:#F2F2F2;stroke-width:2;stroke-miterlimit:10;" points="228.319,345.022 248.313,363.64 
		274.75,359.307 	"/>
	
		<line style="fill:none;stroke:#F2F2F2;stroke-width:2;stroke-miterlimit:10;" x1="273.833" y1="368.837" x2="247.813" y2="363.421"/>
	<polyline style="fill:none;stroke:#F2F2F2;stroke-width:2;stroke-miterlimit:10;" points="296.75,349.828 286.823,379.484 
		293.125,390.681 296.75,406.101 	"/>
	
		<line style="fill:none;stroke:#F2F2F2;stroke-width:2;stroke-miterlimit:10;" x1="295.695" y1="405.656" x2="298.711" y2="405.656"/>
	<path style="fill:none;stroke:#F2F2F2;stroke-width:2;stroke-miterlimit:10;" d="M245.259,382.862"/>
	<path style="fill:none;stroke:#F2F2F2;stroke-width:2;stroke-miterlimit:10;" d="M262.188,373.89l21.25,4.826
		c0,0,2.557,0.424,3.386,0.769c0.876,0.364-3.734,0.684-3.734,0.684l-11.255,2.062l-26.575,0.632"/>
	
		<line style="fill:none;stroke:#F2F2F2;stroke-width:2;stroke-miterlimit:10;" x1="270.125" y1="390.681" x2="292.528" y2="389.62"/>
	<polyline style="fill:none;stroke:#F2F2F2;stroke-width:2;stroke-miterlimit:10;" points="254.953,327.027 255.375,337.663 
		258.125,345.457 262.269,347.684 267.479,350.484 274.75,349.492 278,346.724 279.219,345.457 284.375,346.515 288.885,347.299 	
		"/>
	<polyline style="fill:none;stroke:#F2F2F2;stroke-width:2;stroke-miterlimit:10;" points="264.441,331.99 264.441,335.974 
		265.112,338.755 266.096,340.549 269.167,342.215 272.906,343.057 275.75,342.215 277.406,339.664 	"/>
	<polyline style="fill:none;stroke:#F2F2F2;stroke-width:2;stroke-miterlimit:10;" points="259.333,328.755 258.917,336.974 
		260.656,339.664 261.75,341.474 264,343.546 267.917,346.265 271.625,346.265 276.063,345.457 279.219,344.808 	"/>
	
		<line style="fill:none;stroke:#F2F2F2;stroke-width:2;stroke-miterlimit:10;" x1="278.268" y1="339.505" x2="279.219" y2="345.457"/>
</g>
<g id="Capa_4">
	<path style="fill:none;stroke:#F2F2F2;stroke-width:2;stroke-miterlimit:10;" d="M359.938,303.64
		c0.353-0.142,0.62-0.524,0.875-0.781"/>
	<path style="fill:none;stroke:#F2F2F2;stroke-width:2;stroke-miterlimit:10;" d="M354.271,308.161
		c0.224-0.197,0.972-0.655,1.229-0.802c0.305-0.173,0.515-0.395,0.781-0.578c0.554-0.382,1.075-0.596,1.641-0.938
		c0.333-0.201,0.667-0.36,0.995-0.641c0.288-0.246,0.771-0.91,1.021-1.167"/>
	<path style="fill:none;stroke:#F2F2F2;stroke-width:2;stroke-miterlimit:10;" d="M347.667,298.307"/>
	<polygon style="fill:none;stroke:#F2F2F2;stroke-width:2;stroke-miterlimit:10;" points="347.667,298.307 345.5,278.39 
		334.584,280.14 322.167,312.724 	"/>
	<polyline style="fill:none;stroke:#F2F2F2;stroke-width:2;stroke-miterlimit:10;" points="334.584,280.14 298.219,263.181 
		297.833,296.875 297.833,346.265 322.167,312.724 345.217,278.436 	"/>
	<path style="fill:none;stroke:#F2F2F2;stroke-width:2;stroke-miterlimit:10;" d="M297.896,296.022"/>
	<polyline style="fill:none;stroke:#F2F2F2;stroke-width:2;stroke-miterlimit:10;" points="297.896,296.022 315.125,309.526 
		297.833,318.89 	"/>
	
		<line style="fill:none;stroke:#F2F2F2;stroke-width:2;stroke-miterlimit:10;" x1="298.479" y1="296.479" x2="319.849" y2="273.268"/>
	
		<line style="fill:none;stroke:#F2F2F2;stroke-width:2;stroke-miterlimit:10;" x1="315.125" y1="309.526" x2="319.849" y2="273.268"/>
	
		<line style="fill:none;stroke:#F2F2F2;stroke-width:2;stroke-miterlimit:10;" x1="315.25" y1="309.526" x2="321.656" y2="313.828"/>
	<polyline style="fill:none;stroke:#F2F2F2;stroke-width:2;stroke-miterlimit:10;" points="321.25,313.988 323.417,322.807 
		340,312.307 358.056,315.389 	"/>
	<polyline style="fill:none;stroke:#F2F2F2;stroke-width:2;stroke-miterlimit:10;" points="340,312.307 330.917,331.057 
		357.504,316.212 	"/>
	<polyline style="fill:none;stroke:#F2F2F2;stroke-width:2;stroke-miterlimit:10;" points="330.917,331.057 318,338.724 
		305.75,345.557 297.896,349.492 	"/>
	<path style="fill:none;stroke:#F2F2F2;stroke-width:2;stroke-miterlimit:10;" d="M304.831,347.683"/>
	<path style="fill:none;stroke:#F2F2F2;stroke-width:2;stroke-miterlimit:10;" d="M299.417,349.307"/>
	<path style="fill:none;stroke:#F2F2F2;stroke-width:2;stroke-miterlimit:10;" d="M297.5,348.449l25.917-25.642L297.5,348.449z"/>
	<line style="fill:none;stroke:#F2F2F2;stroke-width:2;stroke-miterlimit:10;" x1="300.5" y1="344.14" x2="321.25" y2="315.64"/>
	
		<line style="fill:none;stroke:#F2F2F2;stroke-width:2;stroke-miterlimit:10;" x1="299.417" y1="348.449" x2="323.417" y2="322.807"/>
	<polyline style="fill:none;stroke:#F2F2F2;stroke-width:2;stroke-miterlimit:10;" points="249.5,277.265 260.5,279.974 
		275.75,273.268 297.64,263.181 	"/>
	<polyline style="fill:none;stroke:#F2F2F2;stroke-width:2;stroke-miterlimit:10;" points="294.5,263.89 256.126,270.724 
		255.027,271.087 	"/>
</g>
</svg>
